# xmcd CD database file
# Copyright (C) 1993-1998 Ti Kan
# 
# Track frame offsets:
#     187
#     23690
#     49005
#     68267
#     83877
#     103935
#     125685
#     146820
#     170715
#     189267
#     208717
# 
# Disc length: 3008 seconds
# 
# Revision: 1
# Processed by: cddbd v1.4b41PL1 Copyright (c) Steve Scherf et al.
# Submitted via: DiscPlay 4.0.4
# 
DISCID=980bbe0b
DTITLE=Rich Nice - Information To Raise A Nation
DYEAR=1900
DGENRE=
TTITLE0=The Rhythm, The Feeling
TTITLE1=Outstanding
TTITLE2=It's Time To Get Hype
TTITLE3=So What You Gotta Man
TTITLE4=Desperado (The Mexican)
TTITLE5=Outlaw
TTITLE6=Dead To The Knowledge
TTITLE7=Trouble Man
TTITLE8=Information To Raise A Nation
TTITLE9=Two Seconds From Disaster
TTITLE10=Explosion
EXTD=
EXTT0=
EXTT1=
EXTT2=
EXTT3=
EXTT4=
EXTT5=
EXTT6=
EXTT7=
EXTT8=
EXTT9=
EXTT10=
PLAYORDER=
